<?xml version="1.0" encoding="UTF-8"?>
<svg version="1.1" xmlns="http://www.w3.org/2000/svg" width="543" height="536">
<path d="M0 0 C179.19 0 358.38 0 543 0 C543 176.88 543 353.76 543 536 C363.81 536 184.62 536 0 536 C0 359.12 0 182.24 0 0 Z " fill="#062E17" transform="translate(0,0)"/>
<path d="M0 0 C2.38032678 0.02615269 4.76072958 0.04606182 7.14115906 0.06002808 C13.36893382 0.11316734 19.59204547 0.25039019 25.81799316 0.40588379 C32.18596317 0.54980077 38.55469627 0.61318805 44.92382812 0.68359375 C57.39266001 0.83317838 69.85804981 1.07171284 82.32421875 1.3671875 C82.03500228 3.11174278 81.73788106 4.85498861 81.4375 6.59765625 C81.27290283 7.56856201 81.10830566 8.53946777 80.9387207 9.53979492 C78.97434246 18.57812008 73.42270036 25.30296036 65.77734375 30.2890625 C57.3762783 33.9812505 48.44518958 33.70574572 39.4453125 33.78125 C38.02326882 33.7999946 36.60123588 33.81957037 35.17921448 33.8399353 C31.46563087 33.89091538 27.75201134 33.93072186 24.03826904 33.96807861 C20.23701338 34.00833428 16.43590274 34.05932738 12.63476562 34.109375 C5.19801673 34.20572928 -2.23880329 34.29026134 -9.67578125 34.3671875 C-8.9995874 35.16600342 -8.32339355 35.96481934 -7.62670898 36.7878418 C-6.72495242 37.85974111 -5.82334927 38.93176951 -4.921875 40.00390625 C-4.47791382 40.52754761 -4.03395264 41.05118896 -3.57653809 41.59069824 C9.25329275 56.88395089 18.81238845 76.97920816 23.32421875 96.3671875 C23.65035156 97.38683594 23.97648437 98.40648437 24.3125 99.45703125 C25.86317111 104.82513522 26.33040261 110.39320328 26.94921875 115.9296875 C27.14487427 117.67958984 27.14487427 117.67958984 27.34448242 119.46484375 C30.68883977 150.73992982 25.05721688 181.60964737 10.32421875 209.3671875 C9.96134766 210.0595752 9.59847656 210.75196289 9.22460938 211.46533203 C4.41708625 220.58473542 -0.7535435 228.65936685 -7.67578125 236.3671875 C-8.54203125 237.35332031 -9.40828125 238.33945312 -10.30078125 239.35546875 C-19.97109295 250.24322836 -30.47071193 259.39475505 -42.67578125 267.3671875 C-43.65804687 268.03492188 -44.6403125 268.70265625 -45.65234375 269.390625 C-76.33319581 289.44813294 -117.45373431 297.62341807 -153.53222656 290.82128906 C-194.09082403 282.22914882 -232.4870742 260.35053955 -255.60009766 225.09228516 C-261.26621372 216.00540906 -262.076486 205.82696287 -260.67578125 195.3671875 C-257.40801906 182.62869862 -249.44121948 173.74991249 -238.49179077 167.02603149 C-227.70473618 161.56190238 -215.94180695 162.69620159 -204.15234375 162.765625 C-201.75921916 162.76011594 -199.36609931 162.75198336 -196.97299194 162.74136353 C-190.69508025 162.71856073 -184.41751784 162.72266322 -178.1395874 162.73516846 C-168.10118689 162.75352311 -158.06299147 162.74330973 -148.02463913 162.70930862 C-144.54056621 162.70325654 -141.05694395 162.71639945 -137.57290649 162.73129272 C-123.70550498 162.73787191 -110.51940084 162.21409242 -97.67578125 156.3671875 C-96.74121094 155.94566406 -95.80664062 155.52414063 -94.84375 155.08984375 C-88.0898587 151.88705505 -82.27668776 148.31498477 -76.67578125 143.3671875 C-75.86367188 142.66078125 -75.0515625 141.954375 -74.21484375 141.2265625 C-61.07451735 129.01616689 -51.27508171 110.22282355 -50.54438782 92.11016846 C-50.54700241 88.94578467 -50.58119551 85.78430262 -50.64590836 82.62059975 C-50.71133381 79.01363333 -50.71501296 75.40629182 -50.73046875 71.79882812 C-50.75393963 67.24055765 -50.79473355 62.68441642 -50.8984375 58.12719727 C-51.49687772 30.39005679 -51.49687772 30.39005679 -46.18011475 22.97665405 C-44.58874927 21.33620434 -42.96104461 19.94781416 -41.19758606 18.49986267 C-38.74386044 16.44018318 -36.86832394 14.41578004 -35.04112244 11.78703308 C-25.65081902 -1.2814818 -15.09418674 -0.48952244 0 0 Z " fill="#FEFEFE" transform="translate(364.67578125,73.6328125)"/>
<path d="M0 0 C17.21234766 -0.07033178 34.42464995 -0.12310584 51.6371088 -0.15543652 C59.63059885 -0.17085258 67.6239992 -0.19184042 75.61743164 -0.22631836 C82.59104062 -0.25638297 89.56458459 -0.27561314 96.53825659 -0.28226548 C100.22485153 -0.28614911 103.9112606 -0.29516385 107.59779549 -0.31719017 C111.73072395 -0.34167932 115.86333694 -0.34195917 119.99633789 -0.34057617 C121.19540771 -0.351362 122.39447754 -0.36214783 123.62988281 -0.3732605 C144.3127855 -0.29896827 163.35907048 6.26593117 178.60546875 20.50390625 C184.5069708 26.65571671 188.82422451 33.13340017 192 41 C150.67581003 59.47935435 108.9367735 63.80426742 65.7890625 48.5546875 C43.37976537 39.95740999 24.31695797 26.35004462 7.3125 9.5625 C6.80710693 9.06645264 6.30171387 8.57040527 5.78100586 8.05932617 C3.26394987 5.51973067 1.49894223 3.22845792 0 0 Z " fill="#CBD3CF" transform="translate(117,308)"/>
<path d="M0 0 C39.93 0 79.86 0 121 0 C119.6623159 12.03915689 116.55660132 19.74469842 107.05078125 27.37890625 C97.69330799 32.35118717 87.75055123 32.46182642 77.40234375 32.43359375 C75.91744247 32.43816773 74.43254329 32.44347686 72.94764709 32.44947815 C69.8539259 32.45835354 66.76046363 32.45604897 63.66674805 32.44604492 C59.72738718 32.43453912 55.78892065 32.45481899 51.84967709 32.48396206 C48.78933667 32.50241421 45.72920731 32.50201421 42.66882515 32.49632454 C41.21733912 32.49617255 39.76583764 32.50211446 38.31440544 32.51461601 C26.16314215 32.60459523 17.01677721 30.81748628 7.98046875 22.29296875 C2.244742 15.65219636 0 8.65498434 0 0 Z " fill="#CCD4D0" transform="translate(188,75)"/>
<path d="M0 0 C3.3125 2.125 3.3125 2.125 5.3125 4.125 C5.539375 3.320625 5.76625 2.51625 6 1.6875 C7.3125 -0.875 7.3125 -0.875 9.8125 -1.8125 C10.6375 -1.833125 11.4625 -1.85375 12.3125 -1.875 C14.75378669 0.56628669 14.564687 1.19580814 14.57128906 4.54296875 C14.57759338 5.45731689 14.58389771 6.37166504 14.59039307 7.3137207 C14.5863446 8.30331787 14.58229614 9.29291504 14.578125 10.3125 C14.58099518 11.83266724 14.58099518 11.83266724 14.58392334 13.38354492 C14.58528591 15.52881112 14.58158447 17.67408553 14.57324219 19.81933594 C14.56254382 23.11151572 14.57313519 26.40314978 14.5859375 29.6953125 C14.58461592 31.77604288 14.58205355 33.85677291 14.578125 35.9375 C14.58217346 36.92709717 14.58622192 37.91669434 14.59039307 38.9362793 C14.58408875 39.85062744 14.57778442 40.76497559 14.57128906 41.70703125 C14.56969788 42.51374268 14.56810669 43.3204541 14.56646729 44.15161133 C14.3125 46.125 14.3125 46.125 12.3125 48.125 C9.6875 48.25 9.6875 48.25 7.3125 48.125 C6.6525 46.145 5.9925 44.165 5.3125 42.125 C4.425625 42.90875 3.53875 43.6925 2.625 44.5 C-2.3591315 48.90458133 -7.43131439 49.63924593 -13.90625 49.5 C-20.58439709 48.59957567 -25.37835176 44.14135035 -29.43359375 38.9921875 C-33.97604554 32.22803811 -34.6380178 25.14103343 -33.6875 17.125 C-31.60444725 9.78951854 -27.63228048 4.45628455 -21.6875 -0.25 C-15.20622297 -3.62536966 -6.46217151 -3.13674749 0 0 Z " fill="#F2F4F3" transform="translate(193.6875,435.875)"/>
<path d="M0 0 C4.04207191 2.41361129 6.36763614 5.81593102 9.15234375 9.55859375 C9.7570752 10.35402588 10.36180664 11.14945801 10.98486328 11.96899414 C12.90883975 14.50952778 14.81419679 17.06306928 16.71484375 19.62109375 C17.3372998 20.45640625 17.95975586 21.29171875 18.60107422 22.15234375 C25.37511381 31.25790497 32.04323127 40.4403795 38.71484375 49.62109375 C38.72070999 49.02418732 38.72657623 48.42728088 38.73262024 47.81228638 C38.79641292 41.61558877 38.88079487 35.41941736 38.97729492 29.22314453 C39.01060825 26.90876185 39.03861997 24.59429667 39.0612793 22.27978516 C39.09470752 18.95830019 39.14701725 15.63757573 39.203125 12.31640625 C39.21270988 10.756978 39.21270988 10.756978 39.2224884 9.16604614 C39.24228256 8.20520111 39.26207672 7.24435608 39.2824707 6.25439453 C39.29357376 5.40612091 39.30467682 4.55784729 39.31611633 3.68386841 C39.44769638 3.00315277 39.57927643 2.32243713 39.71484375 1.62109375 C42.71484375 -0.37890625 42.71484375 -0.37890625 44.83984375 -0.06640625 C46.71484375 0.62109375 46.71484375 0.62109375 47.71484375 1.62109375 C47.81935144 3.57389559 47.85339749 5.5304992 47.86010742 7.48608398 C47.86648727 8.74086044 47.87286713 9.9956369 47.87944031 11.28843689 C47.88096887 12.66885337 47.88208289 14.04927037 47.8828125 15.4296875 C47.88602342 16.83594294 47.88938737 18.24219804 47.89289856 19.64845276 C47.89889607 22.60003433 47.90073783 25.55158659 47.90014648 28.50317383 C47.90004484 32.29089421 47.9136966 36.07842722 47.93091869 39.86610317 C47.94202117 42.7716814 47.94406623 45.67721408 47.94353676 48.58281136 C47.94471955 49.97949939 47.94915796 51.37618851 47.95686913 52.77285576 C47.966633 54.72411576 47.96253609 56.67543039 47.95776367 58.62670898 C47.95918869 59.73843979 47.96061371 60.85017059 47.96208191 61.99559021 C47.71484375 64.62109375 47.71484375 64.62109375 45.71484375 66.62109375 C43.28100586 66.95043945 43.28100586 66.95043945 40.71484375 66.62109375 C39.08422852 65.27026367 39.08422852 65.27026367 37.65625 63.3515625 C37.11250732 62.63693848 36.56876465 61.92231445 36.00854492 61.18603516 C35.43724854 60.40147949 34.86595215 59.61692383 34.27734375 58.80859375 C33.67188721 58.00341309 33.06643066 57.19823242 32.44262695 56.36865234 C30.51660332 53.79813533 28.61445906 51.21117035 26.71484375 48.62109375 C25.478567 46.95260431 24.2415996 45.28462637 23.00390625 43.6171875 C20.71346807 40.52446965 18.43392198 37.42425117 16.1640625 34.31640625 C12.06496804 28.71336305 7.88867411 23.16856747 3.71484375 17.62109375 C3.7067569 18.20547211 3.69867004 18.78985046 3.69033813 19.39193726 C3.60446811 25.4587835 3.504973 31.52529634 3.39746094 37.59179688 C3.35911104 39.85769057 3.32426892 42.1236464 3.29296875 44.38964844 C3.24744848 47.64150242 3.18943299 50.89292635 3.12890625 54.14453125 C3.11157944 55.67114883 3.11157944 55.67114883 3.09390259 57.22860718 C3.0740329 58.16943146 3.05416321 59.11025574 3.03369141 60.07958984 C3.02036774 60.91009857 3.00704407 61.7406073 2.99331665 62.59628296 C2.71484375 64.62109375 2.71484375 64.62109375 0.71484375 66.62109375 C-1.84765625 66.80859375 -1.84765625 66.80859375 -4.28515625 66.62109375 C-6.08544359 64.82080641 -5.43160014 62.09245238 -5.44628906 59.66430664 C-5.45589661 58.38950943 -5.46550415 57.11471222 -5.47540283 55.80128479 C-5.48024991 54.398775 -5.48452896 52.99626315 -5.48828125 51.59375 C-5.4940299 50.16507463 -5.49978766 48.7363993 -5.5055542 47.307724 C-5.51607241 44.30906819 -5.52190981 41.31043925 -5.52539062 38.31176758 C-5.53087967 34.46343566 -5.55491255 30.61545681 -5.58336258 26.76723576 C-5.60195668 23.81533256 -5.6071928 20.86351498 -5.6087265 17.91155815 C-5.61176049 16.49252833 -5.61981404 15.07350028 -5.63291168 13.65452766 C-5.64990433 11.67218095 -5.64625701 9.68968947 -5.64160156 7.70727539 C-5.64524719 6.57777969 -5.64889282 5.448284 -5.65264893 4.28456116 C-5.53137634 3.40561691 -5.41010376 2.52667267 -5.28515625 1.62109375 C-2.28515625 -0.37890625 -2.28515625 -0.37890625 0 0 Z " fill="#EFF1F0" transform="translate(286.28515625,417.37890625)"/>
<path d="M0 0 C7.26217378 3.19579726 10.67566557 8.27320613 14.13671875 15.1953125 C14.25677328 16.69180612 14.31203326 18.19406043 14.32421875 19.6953125 C14.33839844 20.489375 14.35257812 21.2834375 14.3671875 22.1015625 C14.13671875 24.1953125 14.13671875 24.1953125 12.13671875 26.1953125 C9.41186147 26.37048997 6.79012513 26.42680383 4.06640625 26.390625 C3.27017853 26.3877951 2.47395081 26.38496521 1.65359497 26.38204956 C-0.89384888 26.3708389 -3.44094336 26.34573312 -5.98828125 26.3203125 C-7.7135366 26.31028383 -9.43879744 26.30115778 -11.1640625 26.29296875 C-15.39727039 26.27089672 -19.63021655 26.23636117 -23.86328125 26.1953125 C-23.27053035 27.80194468 -22.66521265 29.40394387 -22.0546875 31.00390625 C-21.55110718 32.34279907 -21.55110718 32.34279907 -21.03735352 33.70874023 C-19.28576899 37.41842799 -17.26585346 38.95106274 -13.86328125 41.1953125 C-8.28529296 43.05464193 -3.71016215 42.87893902 1.51171875 40.3203125 C3.8117834 39.08322594 5.26890797 38.06312328 7.13671875 36.1953125 C9.26171875 36.5703125 9.26171875 36.5703125 11.13671875 37.1953125 C11.63171875 39.6703125 11.63171875 39.6703125 12.13671875 42.1953125 C4.64321666 48.24336749 -0.9767233 50.77278953 -10.76171875 50.56640625 C-16.73119718 49.85217394 -21.58059488 47.58692374 -25.74609375 43.22265625 C-27.26135693 41.2645263 -28.60808528 39.32829755 -29.86328125 37.1953125 C-30.42208984 36.33679688 -30.42208984 36.33679688 -30.9921875 35.4609375 C-33.43260638 29.1136597 -32.93859554 19.7668921 -30.98828125 13.2890625 C-24.63600922 1.08601359 -13.26148311 -3.72696524 0 0 Z " fill="#F3F5F4" transform="translate(389.86328125,434.8046875)"/>
<path d="M0 0 C1.7023905 0.04016676 3.40487183 0.07666196 5.10742188 0.109375 C9.26137035 0.19715429 13.41093231 0.33496558 17.5625 0.5 C17.70295024 9.6569506 15.1469315 17.24978629 8.75 24 C-2.61647724 34.25962927 -16.09010799 33.77846615 -30.5 33.625 C-32.14517685 33.61495163 -33.79035964 33.60582906 -35.43554688 33.59765625 C-39.43634615 33.57578623 -43.43685666 33.54135854 -47.4375 33.5 C-44.19917484 29.04277389 -40.9985234 24.81510489 -37 21 C-34.15977889 18.22638374 -31.41985206 15.43156046 -28.8125 12.4375 C-28.00256592 11.53161133 -28.00256592 11.53161133 -27.17626953 10.60742188 C-25.40506345 8.58148269 -25.40506345 8.58148269 -24.22485352 6.38305664 C-18.68525718 -2.25139852 -9.06341918 -0.37104275 0 0 Z " fill="#C7D0CB" transform="translate(374.4375,332.5)"/>
<path d="M0 0 C3 0.125 3 0.125 4 1.125 C4.15786308 2.97674706 4.25107356 4.8340911 4.31640625 6.69140625 C4.37924805 8.3784668 4.37924805 8.3784668 4.44335938 10.09960938 C4.48267578 11.28361328 4.52199219 12.46761719 4.5625 13.6875 C4.60568359 14.87537109 4.64886719 16.06324219 4.69335938 17.28710938 C4.79983546 20.23294784 4.90184841 23.1788743 5 26.125 C5.47050781 25.77566406 5.94101563 25.42632812 6.42578125 25.06640625 C7.04839844 24.61136719 7.67101562 24.15632813 8.3125 23.6875 C8.92738281 23.23503906 9.54226562 22.78257812 10.17578125 22.31640625 C14.70210358 19.36024284 19.79652973 19.56353132 25 20.125 C30.34193947 21.88884794 33.31377 25.26912269 36 30.125 C37.22219174 33.79157523 37.16225591 37.18537606 37.16796875 41.00390625 C37.17296135 42.15571632 37.17296135 42.15571632 37.17805481 43.33079529 C37.18311295 44.95221356 37.18546348 46.57364221 37.18530273 48.19506836 C37.18749484 50.68165049 37.20567723 53.1677929 37.22460938 55.65429688 C37.22754235 57.22916515 37.22952779 58.80403553 37.23046875 60.37890625 C37.23765427 61.12475479 37.24483978 61.87060333 37.25224304 62.63905334 C37.22883245 67.89616755 37.22883245 67.89616755 35 70.125 C32.5 70.375 32.5 70.375 30 70.125 C27.49155368 67.61655368 27.75817673 66.08729946 27.72354126 62.66470337 C27.72453827 61.92199188 27.72553528 61.1792804 27.7265625 60.4140625 C27.70627082 58.84374291 27.68541998 57.27343046 27.6640625 55.703125 C27.64146741 53.2255247 27.62499576 50.74820638 27.61914062 48.27050781 C27.60961425 45.88033961 27.57583379 43.49144519 27.5390625 41.1015625 C27.54410797 40.36289948 27.54915344 39.62423645 27.55435181 38.8631897 C27.48859435 35.42258162 27.26131058 33.47404276 25.17333984 30.68505859 C22.06113926 28.45107053 19.81541822 28.18966811 16 28.125 C10.7619327 29.72305443 7.95033843 31.52756673 5 36.125 C4.39326301 39.66355036 4.39326301 39.66355036 4.4609375 43.54296875 C4.44914459 44.2414241 4.43735168 44.93987946 4.42520142 45.65950012 C4.39006096 47.87739663 4.38078083 50.09434824 4.375 52.3125 C4.35866108 54.5410807 4.33667141 56.76924142 4.30337524 58.99763489 C4.27477145 61.01154868 4.26461981 63.02569925 4.25537109 65.03979492 C4 68.125 4 68.125 2 70.125 C-0.5625 70.3125 -0.5625 70.3125 -3 70.125 C-4.84797201 68.27702799 -4.12775947 65.25703923 -4.12939453 62.78515625 C-4.13202301 61.79248245 -4.13202301 61.79248245 -4.13470459 60.77975464 C-4.13912217 58.5823101 -4.13618547 56.38494542 -4.1328125 54.1875 C-4.13348557 52.66674789 -4.13445561 51.14599588 -4.13571167 49.62524414 C-4.13718851 46.43407164 -4.13503452 43.24292708 -4.13037109 40.05175781 C-4.1246738 35.9523547 -4.12795288 31.85301704 -4.13394356 27.75361633 C-4.13754954 24.61217756 -4.13641042 21.47075442 -4.13381577 18.32931519 C-4.1331466 16.81737256 -4.13397457 15.30542854 -4.13629532 13.79348755 C-4.13882245 11.68390113 -4.13498044 9.57442213 -4.12939453 7.46484375 C-4.12859894 6.26206787 -4.12780334 5.05929199 -4.12698364 3.82006836 C-3.94793596 0.02000603 -3.84233186 0.16009716 0 0 Z " fill="#F1F3F2" transform="translate(101,413.875)"/>
<path d="M0 0 C2 2 2 2 2.1875 4.5625 C2 7 2 7 1 8 C-2.45233864 7.66153543 -5.54623056 7.16300456 -8.81640625 5.98828125 C-15.31695018 3.97032099 -22.51273962 3.74698174 -28.95703125 6.0625 C-35.20253594 9.50829569 -39.3892483 14.02131293 -41.6015625 20.859375 C-43.24352282 29.68088733 -42.46827312 38.17685952 -38 46 C-34.54813785 50.41071274 -30.36891048 53.40221224 -25 55 C-17.49026472 55.83544645 -11.73146969 55.29704638 -5 52 C-1.625 51.75 -1.625 51.75 1 52 C2 53 2 53 2.0625 55.5625 C2.041875 56.366875 2.02125 57.17125 2 58 C-7.90234488 63.94140693 -17.29035551 65.78016053 -28.84765625 63.41796875 C-37.6378719 60.3671649 -44.82879212 53.92376505 -49.0625 45.6875 C-52.97663115 37.03740944 -53.74783036 26.67561149 -50.94140625 17.5625 C-46.45452873 8.02940522 -40.03309302 0.8816145 -30.1875 -3.15234375 C-20.10534419 -5.83350528 -9.26882325 -4.86524439 0 0 Z " fill="#F4F5F4" transform="translate(73,421)"/>
<path d="M0 0 C4.19412596 2.76431029 6.79810616 6.21932004 8.75 10.8125 C9.80170844 17.7427051 8.80056166 23.60648791 5.3671875 29.70703125 C1.84826166 34.2884347 -2.31578362 35.54571153 -7.875 36.3125 C-13.20310792 35.52315068 -16.58860112 32.86131337 -20.125 28.9375 C-23.72607194 23.57074117 -22.90919015 16.9697706 -22.25 10.8125 C-21.12173957 5.69657102 -18.64898955 2.67184321 -14.25 -0.1875 C-9.22141801 -1.863694 -4.90969589 -1.79392735 0 0 Z " fill="#09311A" transform="translate(191.25,442.1875)"/>
<path d="M0 0 C2.88805191 1.72054156 4.99440835 2.99728683 6.9375 5.75 C6.6875 8.5 6.6875 8.5 5.9375 10.75 C3.625 10.9375 3.625 10.9375 0.9375 10.75 C-0.08446992 9.77246356 -1.08229625 8.7694119 -2.0625 7.75 C-6.9556783 5.68399139 -11.18467917 5.04998953 -16.375 6.3125 C-18.45730335 7.78828035 -18.45730335 7.78828035 -18.8125 11.375 C-18.895 12.48875 -18.9775 13.6025 -19.0625 14.75 C-14.1672538 18.32875031 -9.35539695 20.1227493 -3.54101562 21.72851562 C1.14220733 23.14348736 3.73836204 25.08618278 6.9375 28.75 C7.2675 29.08 7.5975 29.41 7.9375 29.75 C8.5079829 34.71600692 8.47102702 38.6631857 6.25 43.1875 C2.24438046 47.62615949 -1.67814896 49.42488911 -7.54296875 49.98828125 C-15.92565531 50.2181096 -21.57386564 48.4711348 -28.1875 43.3125 C-30.0625 40.75 -30.0625 40.75 -29.875 37.9375 C-29.606875 37.215625 -29.33875 36.49375 -29.0625 35.75 C-27.3203125 35.0703125 -27.3203125 35.0703125 -25.0625 34.75 C-22.9921875 35.9296875 -22.9921875 35.9296875 -20.9375 37.625 C-16.89175929 40.90739341 -14.90508452 41.90243968 -9.625 41.9375 C-8.65691406 41.95167969 -7.68882812 41.96585937 -6.69140625 41.98046875 C-3.82983273 41.94149451 -3.82983273 41.94149451 -1.0625 39.75 C-0.47907647 36.29230809 -0.47907647 36.29230809 -1.0625 32.75 C-4.66871696 29.12579692 -9.62023898 28.17191447 -14.3984375 26.8203125 C-19.88508105 25.13892173 -23.96968045 22.60384484 -27.4375 17.875 C-28.7903938 13.27516108 -28.61008171 9.8670667 -26.5 5.5625 C-19.72296593 -2.25715469 -9.68735575 -3.78706564 0 0 Z " fill="#F2F4F3" transform="translate(453.0625,435.25)"/>
<path d="M0 0 C2.375 0.6875 2.375 0.6875 3.375 1.6875 C3.44726502 3.54037502 3.4588122 5.39583878 3.4375 7.25 C3.42847656 8.26191406 3.41945312 9.27382813 3.41015625 10.31640625 C3.39855469 11.09886719 3.38695312 11.88132812 3.375 12.6875 C4.07367188 12.66429687 4.77234375 12.64109375 5.4921875 12.6171875 C6.40226562 12.59914063 7.31234375 12.58109375 8.25 12.5625 C9.60738281 12.52769531 9.60738281 12.52769531 10.9921875 12.4921875 C13.375 12.6875 13.375 12.6875 15.375 14.6875 C15.125 17.25 15.125 17.25 14.375 19.6875 C12.375 20.6875 12.375 20.6875 3.375 20.6875 C3.705 31.5775 4.035 42.4675 4.375 53.6875 C7.015 54.0175 9.655 54.3475 12.375 54.6875 C12.705 56.3375 13.035 57.9875 13.375 59.6875 C10.16875113 61.82499925 9.15041897 61.98324999 5.4375 62 C4.58285156 62.01675781 3.72820312 62.03351563 2.84765625 62.05078125 C-0.15827317 61.60915181 -1.44082656 60.77732469 -3.625 58.6875 C-6.14157908 54.98658275 -5.88180374 51.16664109 -5.8203125 46.859375 C-5.8174826 46.11036926 -5.81465271 45.36136353 -5.81173706 44.58966064 C-5.8005726 42.20544224 -5.77547531 39.82160421 -5.75 37.4375 C-5.73996535 35.81771377 -5.73084035 34.19792164 -5.72265625 32.578125 C-5.70064555 28.61443754 -5.66614175 24.65103319 -5.625 20.6875 C-7.295625 20.749375 -7.295625 20.749375 -9 20.8125 C-12.625 20.6875 -12.625 20.6875 -14.625 18.6875 C-14.06944444 14.13194444 -14.06944444 14.13194444 -12.625 12.6875 C-10.29202567 12.64657063 -7.95794775 12.64508277 -5.625 12.6875 C-5.65980469 11.91664063 -5.69460937 11.14578125 -5.73046875 10.3515625 C-5.75753906 9.34867187 -5.78460938 8.34578125 -5.8125 7.3125 C-5.84730469 6.31476563 -5.88210937 5.31703125 -5.91796875 4.2890625 C-5.77294922 3.00128906 -5.77294922 3.00128906 -5.625 1.6875 C-2.625 -0.3125 -2.625 -0.3125 0 0 Z " fill="#EBEEEC" transform="translate(242.625,422.3125)"/>
<path d="M0 0 C4.55555556 0.55555556 4.55555556 0.55555556 6 2 C6.07226502 3.85287502 6.0838122 5.70833878 6.0625 7.5625 C6.05347656 8.57441406 6.04445313 9.58632813 6.03515625 10.62890625 C6.02355469 11.41136719 6.01195312 12.19382812 6 13 C6.69867188 12.97679687 7.39734375 12.95359375 8.1171875 12.9296875 C9.02726562 12.91164063 9.93734375 12.89359375 10.875 12.875 C12.23238281 12.84019531 12.23238281 12.84019531 13.6171875 12.8046875 C16 13 16 13 18 15 C17.67 16.65 17.34 18.3 17 20 C13.37 20 9.74 20 6 20 C6.11795925 24.68157901 6.24218549 29.36293288 6.37231445 34.04418945 C6.41572146 35.637893 6.45739219 37.2316448 6.49731445 38.82543945 C6.55487807 41.11163908 6.61861149 43.39759449 6.68359375 45.68359375 C6.70030624 46.40026718 6.71701874 47.11694061 6.73423767 47.85533142 C6.55018654 51.21527382 6.55018654 51.21527382 8 54 C9.34747084 54.23075082 10.70377565 54.41153063 12.0625 54.5625 C13.361875 54.706875 14.66125 54.85125 16 55 C16.1875 57.375 16.1875 57.375 16 60 C11.98141405 62.6790573 8.72358279 62.69610694 4 62 C1.12970131 60.20606332 -0.49131638 59.01736724 -2 56 C-2.08675538 53.30106819 -2.11557897 50.62830769 -2.09765625 47.9296875 C-2.0962413 47.13345978 -2.09482635 46.33723206 -2.09336853 45.51687622 C-2.08776345 42.9695462 -2.07521014 40.42230353 -2.0625 37.875 C-2.05748565 36.14974085 -2.05292263 34.42448033 -2.04882812 32.69921875 C-2.03779237 28.46611209 -2.02052436 24.23307086 -2 20 C-4.97 20 -7.94 20 -11 20 C-11.625 17.625 -11.625 17.625 -12 15 C-10 13 -10 13 -8.0546875 12.8046875 C-6.03645833 12.86979167 -4.01822917 12.93489583 -2 13 C-2.02320313 12.22914063 -2.04640625 11.45828125 -2.0703125 10.6640625 C-2.08835937 9.66117187 -2.10640625 8.65828125 -2.125 7.625 C-2.14820313 6.62726563 -2.17140625 5.62953125 -2.1953125 4.6015625 C-2 2 -2 2 0 0 Z " fill="#F7F8F7" transform="translate(490,422)"/>
<path d="M0 0 C3.01556266 1.6655724 5.20634298 3.06620739 6.75 6.25 C6.75 7.9 6.75 9.55 6.75 11.25 C-2.49 11.25 -11.73 11.25 -21.25 11.25 C-20.21001413 5.01008479 -19.80897645 4.06681749 -15.25 0.25 C-10.42129 -3.130097 -5.11376971 -2.38767924 0 0 Z " fill="#0A311B" transform="translate(388.25,442.75)"/>
<path d="M0 0 C3.13623125 0.0393434 3.98404496 0.16642972 6.625 2.0625 C8.20483445 4.33746161 9.020713 5.56051443 9.1875 8.3125 C8.07931691 13.57636969 4.23246337 16.16521567 0.1875 19.3125 C-6.33285529 13.40502406 -6.33285529 13.40502406 -7.9375 9.75 C-7.64466811 4.03977824 -5.58349838 0.4576638 0 0 Z " fill="#C9D2CD" transform="translate(173.8125,163.6875)"/>
<path d="M0 0 C2.4375 1.5 2.4375 1.5 4 4 C4.62303037 7.51870564 4.72132966 10.75771003 2.875 13.9375 C0.17323836 15.46849826 -1.89435505 15.8757742 -5 16 C-7.32731556 14.86220128 -9.16840714 13.83159286 -11 12 C-11.57971014 4.92753623 -11.57971014 4.92753623 -9.4375 1.5 C-6.05111671 -0.58392818 -3.90614682 -0.55802097 0 0 Z " fill="#0A321B" transform="translate(178,267)"/>
</svg>
